<svg width="30" height="30" viewBox="0 0 30 30" fill="none" xmlns="http://www.w3.org/2000/svg">
<path d="M9.66351 3.74034C9.47694 3.74319 9.29546 3.80165 9.1423 3.90822C8.98914 4.0148 8.87126 4.16465 8.80375 4.33861C8.73624 4.51256 8.72217 4.7027 8.76334 4.88469C8.80451 5.06668 8.89904 5.23226 9.03485 5.36022L18.9665 15.0001L9.03485 24.64C8.94451 24.7253 8.87203 24.8277 8.8216 24.9412C8.77118 25.0548 8.74382 25.1772 8.74112 25.3014C8.73842 25.4256 8.76043 25.5491 8.80587 25.6647C8.85131 25.7803 8.91928 25.8858 9.00582 25.9749C9.09236 26.064 9.19576 26.1351 9.30999 26.1839C9.42422 26.2327 9.54702 26.2584 9.67125 26.2593C9.79548 26.2603 9.91866 26.2365 10.0336 26.1895C10.1486 26.1424 10.2531 26.073 10.341 25.9852L20.966 15.6727C21.056 15.5853 21.1275 15.4808 21.1764 15.3652C21.2252 15.2497 21.2504 15.1255 21.2504 15.0001C21.2504 14.8747 21.2252 14.7505 21.1764 14.635C21.1275 14.5194 21.056 14.4149 20.966 14.3275L10.341 4.015C10.2522 3.92618 10.1465 3.8561 10.0301 3.80892C9.91374 3.76174 9.78907 3.73842 9.66351 3.74034Z" fill="#AFAFAF"/>
</svg>
