<svg width="30" height="30" viewBox="0 0 30 30" fill="none" xmlns="http://www.w3.org/2000/svg">
<path d="M20.337 26.2597C20.5236 26.2568 20.705 26.1984 20.8582 26.0918C21.0113 25.9852 21.1292 25.8353 21.1967 25.6614C21.2642 25.4874 21.2783 25.2973 21.2371 25.1153C21.196 24.9333 21.1014 24.7677 20.9656 24.6398L11.034 14.9999L20.9656 5.36C21.056 5.27471 21.1285 5.17233 21.1789 5.05879C21.2293 4.94525 21.2567 4.82282 21.2594 4.69862C21.2621 4.57442 21.2401 4.45091 21.1946 4.33529C21.1492 4.21967 21.0812 4.11423 20.9947 4.0251C20.9081 3.93597 20.8047 3.86493 20.6905 3.8161C20.5763 3.76727 20.4535 3.74163 20.3292 3.74067C20.205 3.73971 20.0818 3.76345 19.9669 3.81051C19.8519 3.85756 19.7474 3.927 19.6595 4.01478L9.03449 14.3273C8.94451 14.4147 8.87297 14.5192 8.82412 14.6348C8.77527 14.7503 8.75011 14.8745 8.75011 14.9999C8.75011 15.1253 8.77527 15.2495 8.82412 15.365C8.87297 15.4806 8.94451 15.5851 9.03449 15.6725L19.6595 25.985C19.7483 26.0738 19.854 26.1439 19.9704 26.1911C20.0867 26.2383 20.2114 26.2616 20.337 26.2597Z" fill="#AFAFAF"/>
</svg>
