<svg width="25" height="25" viewBox="0 0 25 25" fill="none" xmlns="http://www.w3.org/2000/svg">
<path opacity="0.35" d="M18.7626 20.851L19.2709 21.3541L18.749 20.8323C18.7542 20.8385 18.7563 20.8458 18.7626 20.851Z" fill="white"/>
<path opacity="0.35" d="M24.577 10.9375C24.3947 7.48021 21.8332 3.44062 18.3832 3.15312C18.1645 3.13437 17.9395 3.125 17.7082 3.125C15.6062 3.125 13.8062 4.37604 12.9832 6.16875C11.6895 5.43021 9.11137 5.06875 7.47595 5.25729C4.81554 5.56562 2.53012 7.40937 1.54574 9.90104C0.962411 11.3792 0.933244 12.7844 1.21658 14.074L1.98012 21.9906C2.03845 22.5177 2.48429 22.9167 3.01554 22.9167H6.24991C6.82491 22.9167 7.29158 22.45 7.29158 21.875V21.1771C7.29158 20.324 7.98324 19.6333 8.83533 19.6333H8.89679C9.7322 19.6333 10.4155 20.3167 10.4155 21.1521V21.875C10.4155 22.45 10.8822 22.9167 11.4572 22.9167H14.6916C15.2228 22.9167 15.6687 22.5177 15.727 21.9896C15.727 21.9896 16.1916 19.074 16.4437 16.8885C16.5301 16.1354 17.1385 15.5521 17.8937 15.4937L17.9385 15.4906C18.8832 15.4167 19.6957 16.1885 19.6489 17.1354C19.5957 18.1958 19.302 18.7937 18.6739 19.6365C18.401 20.0031 18.4332 20.5052 18.7489 20.8333L19.6666 21.751C20.0666 22.151 20.7207 22.1 21.0645 21.65C22.2655 20.076 24.8582 16.2844 24.577 10.9375Z" fill="white"/>
<path d="M15.625 4.25622C15.625 3.62706 14.9812 3.1156 14.2469 3.19893C11.4583 3.51456 9.375 4.8406 9.375 7.36872C9.375 9.81976 11.3333 12.626 13.9937 13.4781C14.7854 13.7323 15.625 13.1854 15.625 12.4666V4.25622Z" fill="white"/>
</svg>
