<svg width="18" height="18" viewBox="0 0 18 18" fill="none" xmlns="http://www.w3.org/2000/svg">
<path d="M15.5515 1.86986C15.5312 1.87047 15.5109 1.87218 15.4907 1.87499H10.3125C10.238 1.87393 10.164 1.8877 10.0948 1.9155C10.0256 1.94329 9.96266 1.98456 9.90958 2.0369C9.8565 2.08923 9.81435 2.1516 9.78558 2.22037C9.75681 2.28914 9.74199 2.36294 9.74199 2.43749C9.74199 2.51203 9.75681 2.58583 9.78558 2.6546C9.81435 2.72337 9.8565 2.78574 9.90958 2.83808C9.96266 2.89041 10.0256 2.93168 10.0948 2.95948C10.164 2.98727 10.238 3.00104 10.3125 2.99999H14.2046L8.4148 8.78978C8.36081 8.84162 8.31771 8.9037 8.28802 8.97239C8.25833 9.04109 8.24265 9.11502 8.24189 9.18986C8.24113 9.26469 8.2553 9.33893 8.28359 9.40821C8.31188 9.4775 8.35371 9.54044 8.40663 9.59336C8.45954 9.64628 8.52249 9.68811 8.59178 9.7164C8.66106 9.74468 8.7353 9.75886 8.81013 9.7581C8.88497 9.75734 8.9589 9.74166 9.02759 9.71197C9.09629 9.68228 9.15837 9.63918 9.21021 9.58519L15 3.7954V7.68749C14.9989 7.76203 15.0127 7.83603 15.0405 7.9052C15.0683 7.97437 15.1096 8.03733 15.1619 8.09041C15.2142 8.14349 15.2766 8.18564 15.3454 8.21441C15.4142 8.24318 15.488 8.258 15.5625 8.258C15.637 8.258 15.7108 8.24318 15.7796 8.21441C15.8484 8.18564 15.9108 8.14349 15.9631 8.09041C16.0154 8.03733 16.0567 7.97437 16.0845 7.9052C16.1123 7.83603 16.1261 7.76203 16.125 7.68749V2.50853C16.1361 2.4276 16.1294 2.34523 16.1055 2.26714C16.0815 2.18905 16.0408 2.11711 15.9862 2.05633C15.9316 1.99555 15.8645 1.94739 15.7894 1.91519C15.7144 1.88298 15.6332 1.86752 15.5515 1.86986ZM4.6875 2.99999C3.14081 2.99999 1.875 4.2658 1.875 5.81249V13.3125C1.875 14.8592 3.14081 16.125 4.6875 16.125H12.1875C13.7342 16.125 15 14.8592 15 13.3125V9.56249C15.0011 9.48795 14.9873 9.41395 14.9595 9.34478C14.9317 9.27561 14.8904 9.21265 14.8381 9.15957C14.7858 9.10649 14.7234 9.06433 14.6546 9.03556C14.5858 9.00679 14.512 8.99198 14.4375 8.99198C14.363 8.99198 14.2892 9.00679 14.2204 9.03556C14.1516 9.06433 14.0892 9.10649 14.0369 9.15957C13.9846 9.21265 13.9433 9.27561 13.9155 9.34478C13.8877 9.41395 13.8739 9.48795 13.875 9.56249V13.3125C13.875 14.2513 13.1263 15 12.1875 15H4.6875C3.74869 15 3 14.2513 3 13.3125V5.81249C3 4.87368 3.74869 4.12499 4.6875 4.12499H8.4375C8.51204 4.12604 8.58604 4.11227 8.65521 4.08448C8.72438 4.05668 8.78734 4.01541 8.84042 3.96308C8.8935 3.91074 8.93566 3.84837 8.96443 3.7796C8.9932 3.71083 9.00801 3.63703 9.00801 3.56249C9.00801 3.48794 8.9932 3.41414 8.96443 3.34537C8.93566 3.2766 8.8935 3.21423 8.84042 3.1619C8.78734 3.10956 8.72438 3.06829 8.65521 3.0405C8.58604 3.0127 8.51204 2.99893 8.4375 2.99999H4.6875Z" fill="url(#paint0_linear_2_1375)"/>
<defs>
<linearGradient id="paint0_linear_2_1375" x1="1.875" y1="8.99731" x2="14.6252" y2="9.05767" gradientUnits="userSpaceOnUse">
<stop stop-color="#AD54F0"/>
<stop offset="1" stop-color="#D24DBC"/>
</linearGradient>
</defs>
</svg>
