<svg width="15" height="15" viewBox="0 0 15 15" fill="none" xmlns="http://www.w3.org/2000/svg">
<path d="M12.2852 0C12.1608 3.03385e-05 12.0392 0.03717 11.9361 0.106667C11.8329 0.176164 11.7528 0.274858 11.7061 0.390121C11.6593 0.505385 11.648 0.631976 11.6736 0.753697C11.6992 0.875419 11.7606 0.986736 11.8498 1.07341L12.8662 2.08984H12.2917C7.35141 2.08984 3.33333 6.10792 3.33333 11.0482C3.33216 11.131 3.34746 11.2132 3.37835 11.2901C3.40923 11.3669 3.45508 11.4369 3.51323 11.4959C3.57139 11.5548 3.64068 11.6017 3.71709 11.6336C3.7935 11.6656 3.87551 11.6821 3.95833 11.6821C4.04116 11.6821 4.12316 11.6656 4.19957 11.6336C4.27599 11.6017 4.34528 11.5548 4.40343 11.4959C4.46159 11.4369 4.50744 11.3669 4.53832 11.2901C4.5692 11.2132 4.5845 11.131 4.58333 11.0482C4.58333 6.78343 8.02692 3.33984 12.2917 3.33984H12.8662L11.8498 4.35628C11.7898 4.41387 11.7419 4.48285 11.7089 4.55918C11.6759 4.63551 11.6585 4.71766 11.6577 4.80081C11.6568 4.88396 11.6726 4.96644 11.704 5.04343C11.7354 5.12041 11.7819 5.19035 11.8407 5.24915C11.8995 5.30795 11.9694 5.35442 12.0464 5.38585C12.1234 5.41728 12.2059 5.43304 12.289 5.43219C12.3722 5.43135 12.4543 5.41392 12.5307 5.38093C12.607 5.34794 12.676 5.30005 12.7336 5.24007L14.7632 3.21045C14.8396 3.15188 14.9014 3.07646 14.9438 2.99007C14.9863 2.90368 15.0082 2.80866 15.0079 2.71241C15.0075 2.61616 14.985 2.52128 14.942 2.43518C14.899 2.34907 14.8367 2.27406 14.7599 2.21598L12.7336 0.189616C12.6753 0.129622 12.6056 0.0819274 12.5286 0.0493572C12.4516 0.0167871 12.3688 3.32995e-06 12.2852 0ZM2.70833 0.00651042C1.22003 0.00651042 0 1.22654 0 2.71484V12.2982C0 13.7865 1.22003 15.0065 2.70833 15.0065H12.2917C13.78 15.0065 15 13.7865 15 12.2982V8.96484C15.0012 8.88202 14.9859 8.7998 14.955 8.72294C14.9241 8.64609 14.8783 8.57614 14.8201 8.51716C14.7619 8.45817 14.6927 8.41134 14.6162 8.37937C14.5398 8.3474 14.4578 8.33094 14.375 8.33094C14.2922 8.33094 14.2102 8.3474 14.1338 8.37937C14.0573 8.41134 13.9881 8.45817 13.9299 8.51716C13.8717 8.57614 13.8259 8.64609 13.795 8.72294C13.7641 8.7998 13.7488 8.88202 13.75 8.96484V12.2982C13.75 13.1107 13.1042 13.7565 12.2917 13.7565H2.70833C1.89581 13.7565 1.25 13.1107 1.25 12.2982V2.71484C1.25 1.90232 1.89581 1.25651 2.70833 1.25651H6.04167C6.12449 1.25768 6.20671 1.24238 6.28357 1.2115C6.36042 1.18061 6.43037 1.13476 6.48936 1.07661C6.54834 1.01846 6.59517 0.949162 6.62714 0.872752C6.65911 0.796341 6.67557 0.714339 6.67557 0.63151C6.67557 0.548682 6.65911 0.46668 6.62714 0.390269C6.59517 0.313858 6.54834 0.244563 6.48936 0.18641C6.43037 0.128258 6.36042 0.082407 6.28357 0.0515235C6.20671 0.0206399 6.12449 0.00533914 6.04167 0.00651042H2.70833Z" fill="white"/>
</svg>
