<svg width="27" height="26" viewBox="0 0 27 26" fill="none" xmlns="http://www.w3.org/2000/svg">
<path d="M15.2508 26.1875V16.933H18.3148L18.9061 13.1362C18.9106 13.1154 18.8808 13.0762 18.8694 13.0762H15.2485V10.4028C15.2897 10.0452 15.3631 9.6969 15.551 9.3878C16.2545 8.22292 17.9206 8.58738 19.055 8.5251V5.26573C18.7158 5.21268 18.3721 5.15501 18.0283 5.1158C15.9131 4.88282 13.6397 4.85514 12.1845 6.67051C10.7361 8.47666 11.199 10.9218 11.1211 13.0762H7.78436V16.933H11.1211V26.1875C5.37348 25.334 0.808381 20.5476 0.100241 14.7509C-0.733944 7.93458 3.72115 1.55886 10.3763 0.119483C19.2292 -1.79508 27.2433 5.51486 26.2991 14.5548C25.6872 20.4184 21.0511 25.3386 15.2508 26.1875Z" fill="white" fill-opacity="0.6"/>
</svg>
