<svg width="27" height="26" viewBox="0 0 27 26" fill="none" xmlns="http://www.w3.org/2000/svg">
<path d="M13.1875 -0.1875C5.9041 -0.1875 0 5.7166 0 13C0 20.2834 5.9041 26.1875 13.1875 26.1875C20.4709 26.1875 26.375 20.2834 26.375 13C26.375 5.7166 20.4709 -0.1875 13.1875 -0.1875ZM21.4655 16.4362C21.413 16.6614 21.4239 16.9062 21.3955 17.1379C21.0086 20.2266 18.8468 21.3261 15.957 21.361C15.9024 21.361 15.8106 21.3392 15.7756 21.3938C13.9832 21.3938 12.1361 21.4507 10.3502 21.3938C9.03649 21.3523 7.71621 21.2321 6.61014 20.4495C4.99477 19.3041 4.71497 17.5926 4.65814 15.7324C4.77836 13.4722 4.46141 11.0065 4.76306 8.77248C5.1915 5.58763 7.44734 4.67393 10.3502 4.58212H15.7428L17.2686 4.68486C19.2993 4.95372 20.8206 6.16689 21.2862 8.19322L21.4677 9.44136V16.4362H21.4655Z" fill="white" fill-opacity="0.6"/>
<path d="M16.0875 6.15763C14.2055 6.07457 12.1311 6.06582 10.2446 6.13358C8.1134 6.21009 6.55923 6.68662 6.27725 9.06706C6.10238 10.536 6.20293 12.1492 6.20948 13.6268C6.22041 16.4095 5.73515 19.4741 9.38122 19.8173C9.81402 19.8588 10.2643 19.837 10.6971 19.8501C12.5945 19.9069 14.5268 19.9288 16.4176 19.8195C18.8833 19.6774 19.7883 18.7003 19.9194 16.2565C20.0353 14.1099 20.0309 11.9 19.9194 9.75343C19.7773 7.0298 18.7237 6.27567 16.0875 6.15982V6.15763ZM16.822 15.1635C15.1891 17.9855 11.0884 18.0249 9.38122 15.2488C7.6478 12.429 9.64134 8.75884 12.9399 8.66048C16.3236 8.55993 18.5226 12.2213 16.822 15.1635ZM17.6985 9.50642C16.2668 9.64413 16.1728 7.50633 17.5674 7.48884C18.8527 7.47354 18.9183 9.38838 17.6985 9.50642Z" fill="white" fill-opacity="0.6"/>
<path d="M12.776 10.2059C10.8415 10.3873 9.70267 12.5273 10.5727 14.2564C11.5519 16.204 14.3827 16.3067 15.4844 14.4203C16.656 12.4137 15.0822 9.9895 12.776 10.2059Z" fill="white" fill-opacity="0.6"/>
</svg>
