<svg width="27" height="26" viewBox="0 0 27 26" fill="none" xmlns="http://www.w3.org/2000/svg">
<path d="M3.21629 -0.168674L23.0411 -0.1875C24.8221 0.00311162 26.2221 1.41976 26.375 3.20821V22.7871C26.2197 24.5967 24.7868 26.0322 22.9752 26.1875H3.39981C1.59286 26.0181 0.152933 24.6061 0 22.7871L0.00470304 3.14467C0.188222 1.43388 1.50815 0.0595891 3.21629 -0.168674ZM5.89379 4.22716C3.69156 4.54485 3.90331 8.30295 6.68433 7.83231C8.71481 7.48874 8.50305 3.85064 5.89379 4.22716ZM8.03955 9.35955H4.39976V21.7893H8.03955V9.35955ZM13.9451 9.35955H10.2371V21.7893H13.9451V13.9954C13.9451 13.9531 14.1592 13.513 14.2063 13.433C15.065 11.9505 17.3332 12.1505 18.0296 13.6871C18.119 13.8825 18.3378 14.6378 18.3378 14.819V21.7893H21.9776C21.9282 18.9701 22.0835 16.1345 21.8905 13.3271C21.4788 10.5856 19.5683 9.11246 16.7944 9.35955C15.5521 9.47015 14.6462 10.1667 13.9428 11.1433V9.3572L13.9451 9.35955Z" fill="white" fill-opacity="0.6"/>
</svg>
