<svg width="27" height="26" viewBox="0 0 27 26" fill="none" xmlns="http://www.w3.org/2000/svg">
<path d="M12.2179 -0.151285C22.7552 -0.914882 29.9345 10.5503 24.5298 19.7225C19.4107 28.4104 6.75471 28.3226 1.74809 19.5761C-3.07185 11.1585 2.61402 0.546991 12.2179 -0.149032V-0.151285ZM16.2439 5.11731H13.7136L13.5382 5.29301V16.4902C13.5382 16.8078 12.9264 17.5286 12.6543 17.7268C11.8918 18.2832 11.0663 18.362 10.2364 17.9093C7.79607 16.5825 9.39298 12.92 12.0087 13.7196V11.0684C11.3003 10.6517 9.96201 11.0099 9.21979 11.341C4.13669 13.6092 6.26215 21.5831 11.9188 20.8803C13.6686 20.6618 16.2439 18.7269 16.2439 16.8438V10.5391C16.9277 10.726 17.4922 11.1608 18.1917 11.3567C18.7787 11.5212 19.3995 11.6315 20.009 11.6V8.89025C17.906 8.90602 16.3204 7.17159 16.2439 5.11957V5.11731Z" fill="white" fill-opacity="0.6"/>
</svg>
